<svg xmlns="http://www.w3.org/2000/svg" width="1200" height="630" viewBox="0 0 1200 630">
  <defs>
    <linearGradient id="bg" x1="0%" y1="0%" x2="100%" y2="100%">
      <stop offset="0%" stop-color="#1e40af"/><stop offset="100%" stop-color="#1e3a5f"/>
    </linearGradient>
  </defs>
  <rect width="1200" height="630" fill="url(#bg)"/>
  <g opacity="0.06" fill="white">
    <circle cx="100" cy="100" r="3"/><circle cx="250" cy="100" r="3"/><circle cx="400" cy="100" r="3"/><circle cx="550" cy="100" r="3"/><circle cx="700" cy="100" r="3"/><circle cx="850" cy="100" r="3"/><circle cx="1000" cy="100" r="3"/><circle cx="1150" cy="100" r="3"/>
    <circle cx="100" cy="250" r="3"/><circle cx="250" cy="250" r="3"/><circle cx="400" cy="250" r="3"/><circle cx="550" cy="250" r="3"/><circle cx="700" cy="250" r="3"/><circle cx="850" cy="250" r="3"/><circle cx="1000" cy="250" r="3"/><circle cx="1150" cy="250" r="3"/>
    <circle cx="100" cy="400" r="3"/><circle cx="250" cy="400" r="3"/><circle cx="400" cy="400" r="3"/><circle cx="550" cy="400" r="3"/><circle cx="700" cy="400" r="3"/><circle cx="850" cy="400" r="3"/><circle cx="1000" cy="400" r="3"/><circle cx="1150" cy="400" r="3"/>
    <circle cx="100" cy="550" r="3"/><circle cx="250" cy="550" r="3"/><circle cx="400" cy="550" r="3"/><circle cx="550" cy="550" r="3"/><circle cx="700" cy="550" r="3"/><circle cx="850" cy="550" r="3"/><circle cx="1000" cy="550" r="3"/><circle cx="1150" cy="550" r="3"/>
  </g>
  <!-- Browser/card mockup -->
  <rect x="220" y="140" width="480" height="320" rx="16" fill="white" opacity="0.12"/>
  <rect x="220" y="140" width="480" height="42" rx="16" fill="white" opacity="0.2"/>
  <rect x="220" y="167" width="480" height="15" fill="white" opacity="0.2"/>
  <circle cx="248" cy="161" r="7" fill="#ff5f57" opacity="0.8"/>
  <circle cx="268" cy="161" r="7" fill="#febc2e" opacity="0.8"/>
  <circle cx="288" cy="161" r="7" fill="#28c840" opacity="0.8"/>
  <!-- Ad card -->
  <rect x="248" y="200" width="424" height="230" rx="10" fill="white" opacity="0.15"/>
  <rect x="264" y="216" width="180" height="100" rx="8" fill="white" opacity="0.25"/>
  <rect x="264" y="330" width="280" height="12" rx="4" fill="white" opacity="0.35"/>
  <rect x="264" y="350" width="200" height="10" rx="4" fill="white" opacity="0.2"/>
  <rect x="264" y="368" width="240" height="10" rx="4" fill="white" opacity="0.2"/>
  <rect x="380" y="396" width="80" height="20" rx="5" fill="#1e40af" opacity="0.8"/>
  <!-- Magnifier -->
  <circle cx="580" cy="270" r="60" fill="none" stroke="white" stroke-width="8" opacity="0.7"/>
  <line x1="626" y1="316" x2="665" y2="355" stroke="white" stroke-width="8" stroke-linecap="round" opacity="0.7"/>
  <!-- Meta logo area -->
  <rect x="820" y="200" width="220" height="60" rx="12" fill="white" opacity="0.12"/>
  <text x="930" y="238" font-family="system-ui,sans-serif" font-size="20" font-weight="800" fill="white" text-anchor="middle">Meta Ad Library</text>
  <rect x="820" y="275" width="220" height="50" rx="12" fill="white" opacity="0.08"/>
  <text x="930" y="305" font-family="system-ui,sans-serif" font-size="15" fill="white" text-anchor="middle" opacity="0.75">bezpłatne narzędzie</text>
  <text x="100" y="576" font-family="system-ui,sans-serif" font-size="22" font-weight="700" fill="white" opacity="0.35" letter-spacing="6">MIAUSEO · FACEBOOK ADS · ANALIZA KONKURENCJI</text>
</svg>
