<svg xmlns="http://www.w3.org/2000/svg" width="1200" height="630" viewBox="0 0 1200 630">
  <defs>
    <linearGradient id="bg" x1="0%" y1="0%" x2="100%" y2="100%">
      <stop offset="0%" stop-color="#FF7A1A"/>
      <stop offset="100%" stop-color="#C94400"/>
    </linearGradient>
    <linearGradient id="pin" x1="0%" y1="0%" x2="0%" y2="100%">
      <stop offset="0%" stop-color="#ffffff" stop-opacity="0.95"/>
      <stop offset="100%" stop-color="#ffffff" stop-opacity="0.7"/>
    </linearGradient>
  </defs>
  <!-- Background -->
  <rect width="1200" height="630" fill="url(#bg)"/>
  <!-- Subtle grid -->
  <g opacity="0.06" stroke="white" stroke-width="1">
    <line x1="0" y1="105" x2="1200" y2="105"/>
    <line x1="0" y1="210" x2="1200" y2="210"/>
    <line x1="0" y1="315" x2="1200" y2="315"/>
    <line x1="0" y1="420" x2="1200" y2="420"/>
    <line x1="0" y1="525" x2="1200" y2="525"/>
    <line x1="150" y1="0" x2="150" y2="630"/>
    <line x1="300" y1="0" x2="300" y2="630"/>
    <line x1="450" y1="0" x2="450" y2="630"/>
    <line x1="600" y1="0" x2="600" y2="630"/>
    <line x1="750" y1="0" x2="750" y2="630"/>
    <line x1="900" y1="0" x2="900" y2="630"/>
    <line x1="1050" y1="0" x2="1050" y2="630"/>
  </g>
  <!-- Decorative circles -->
  <circle cx="120" cy="120" r="180" fill="white" opacity="0.04"/>
  <circle cx="1100" cy="520" r="220" fill="white" opacity="0.04"/>
  <!-- Map pin -->
  <path d="M370 150 C310 150 260 200 260 265 C260 340 370 440 370 440 C370 440 480 340 480 265 C480 200 430 150 370 150 Z" fill="url(#pin)"/>
  <circle cx="370" cy="260" r="48" fill="#FF6A00"/>
  <circle cx="370" cy="260" r="18" fill="white"/>
  <!-- Pin shadow/dot -->
  <ellipse cx="370" cy="452" rx="30" ry="10" fill="white" opacity="0.2"/>
  <!-- Bar chart -->
  <rect x="580" y="360" width="55" height="100" rx="6" fill="white" opacity="0.25"/>
  <rect x="655" y="300" width="55" height="160" rx="6" fill="white" opacity="0.4"/>
  <rect x="730" y="230" width="55" height="230" rx="6" fill="white" opacity="0.6"/>
  <rect x="805" y="170" width="55" height="290" rx="6" fill="white" opacity="0.8"/>
  <rect x="880" y="120" width="55" height="340" rx="6" fill="white" opacity="1"/>
  <!-- Arrow up on last bar -->
  <polyline points="907,100 907,60 945,60" stroke="white" stroke-width="6" fill="none" stroke-linecap="round" stroke-linejoin="round"/>
  <polyline points="885,80 907,60 929,80" stroke="white" stroke-width="6" fill="none" stroke-linecap="round" stroke-linejoin="round"/>
  <!-- Label -->
  <text x="100" y="576" font-family="system-ui,sans-serif" font-size="22" font-weight="700" fill="white" opacity="0.35" letter-spacing="6">MIAUSEO · LOCAL SEO · GOOGLE BUSINESS PROFILE</text>
</svg>
