<svg xmlns="http://www.w3.org/2000/svg" width="1200" height="630" viewBox="0 0 1200 630">
  <defs>
    <linearGradient id="bg" x1="0%" y1="0%" x2="100%" y2="100%">
      <stop offset="0%" stop-color="#7c3aed"/>
      <stop offset="100%" stop-color="#3b0764"/>
    </linearGradient>
  </defs>
  <rect width="1200" height="630" fill="url(#bg)"/>
  <g opacity="0.06" stroke="white" stroke-width="1">
    <line x1="0" y1="105" x2="1200" y2="105"/><line x1="0" y1="210" x2="1200" y2="210"/><line x1="0" y1="315" x2="1200" y2="315"/><line x1="0" y1="420" x2="1200" y2="420"/><line x1="0" y1="525" x2="1200" y2="525"/>
    <line x1="150" y1="0" x2="150" y2="630"/><line x1="300" y1="0" x2="300" y2="630"/><line x1="450" y1="0" x2="450" y2="630"/><line x1="600" y1="0" x2="600" y2="630"/><line x1="750" y1="0" x2="750" y2="630"/><line x1="900" y1="0" x2="900" y2="630"/><line x1="1050" y1="0" x2="1050" y2="630"/>
  </g>
  <circle cx="120" cy="120" r="180" fill="white" opacity="0.04"/>
  <circle cx="1100" cy="520" r="220" fill="white" opacity="0.04"/>
  <!-- Lock body -->
  <rect x="480" y="290" width="240" height="200" rx="24" fill="white" opacity="0.9"/>
  <!-- Lock shackle -->
  <path d="M530 290 L530 220 Q530 150 600 150 Q670 150 670 220 L670 290" fill="none" stroke="white" stroke-width="28" stroke-linecap="round" opacity="0.9"/>
  <!-- Keyhole -->
  <circle cx="600" cy="380" r="30" fill="#7c3aed"/>
  <rect x="588" y="395" width="24" height="40" rx="4" fill="#7c3aed"/>
  <!-- Key -->
  <circle cx="820" cy="200" r="45" fill="none" stroke="white" stroke-width="14" opacity="0.8"/>
  <rect x="860" y="193" width="110" height="14" rx="7" fill="white" opacity="0.8"/>
  <rect x="945" y="207" width="14" height="28" rx="4" fill="white" opacity="0.8"/>
  <rect x="912" y="207" width="14" height="20" rx="4" fill="white" opacity="0.8"/>
  <text x="100" y="576" font-family="system-ui,sans-serif" font-size="22" font-weight="700" fill="white" opacity="0.35" letter-spacing="6">MIAUSEO · WORDPRESS · DOSTĘP</text>
</svg>
