<svg xmlns="http://www.w3.org/2000/svg" width="1200" height="630" viewBox="0 0 1200 630">
  <defs><linearGradient id="bg" x1="0%" y1="0%" x2="100%" y2="100%"><stop offset="0%" stop-color="#0e7490"/><stop offset="100%" stop-color="#083344"/></linearGradient></defs>
  <rect width="1200" height="630" fill="url(#bg)"/>
  <g opacity="0.06" stroke="white" stroke-width="1"><line x1="0" y1="105" x2="1200" y2="105"/><line x1="0" y1="210" x2="1200" y2="210"/><line x1="0" y1="315" x2="1200" y2="315"/><line x1="0" y1="420" x2="1200" y2="420"/><line x1="0" y1="525" x2="1200" y2="525"/><line x1="150" y1="0" x2="150" y2="630"/><line x1="300" y1="0" x2="300" y2="630"/><line x1="450" y1="0" x2="450" y2="630"/><line x1="600" y1="0" x2="600" y2="630"/><line x1="750" y1="0" x2="750" y2="630"/><line x1="900" y1="0" x2="900" y2="630"/><line x1="1050" y1="0" x2="1050" y2="630"/></g>
  <circle cx="120" cy="120" r="180" fill="white" opacity="0.04"/><circle cx="1100" cy="520" r="220" fill="white" opacity="0.04"/>
  <!-- Service cards -->
  <rect x="300" y="160" width="220" height="180" rx="18" fill="white" opacity="0.15"/>
  <rect x="540" y="160" width="220" height="180" rx="18" fill="white" opacity="0.15"/>
  <rect x="780" y="160" width="120" height="180" rx="18" fill="white" opacity="0.08"/>
  <rect x="300" y="360" width="220" height="120" rx="18" fill="white" opacity="0.1"/>
  <!-- Service icons -->
  <circle cx="410" cy="220" r="30" fill="white" opacity="0.3"/>
  <circle cx="650" cy="220" r="30" fill="white" opacity="0.3"/>
  <!-- Price tags -->
  <rect x="340" y="300" width="140" height="28" rx="8" fill="white" opacity="0.5"/>
  <rect x="580" y="300" width="140" height="28" rx="8" fill="white" opacity="0.5"/>
  <!-- Plus button -->
  <circle cx="840" cy="250" r="28" fill="white" opacity="0.7"/>
  <line x1="826" y1="250" x2="854" y2="250" stroke="#0e7490" stroke-width="5" stroke-linecap="round"/>
  <line x1="840" y1="236" x2="840" y2="264" stroke="#0e7490" stroke-width="5" stroke-linecap="round"/>
  <text x="100" y="576" font-family="system-ui,sans-serif" font-size="22" font-weight="700" fill="white" opacity="0.35" letter-spacing="6">MIAUSEO · GOOGLE BUSINESS PROFILE · USŁUGI</text>
</svg>
