<svg xmlns="http://www.w3.org/2000/svg" width="1200" height="630" viewBox="0 0 1200 630">
  <defs>
    <linearGradient id="bg" x1="0%" y1="0%" x2="100%" y2="100%">
      <stop offset="0%" stop-color="#3b82f6"/><stop offset="100%" stop-color="#1e3a8a"/>
    </linearGradient>
  </defs>
  <rect width="1200" height="630" fill="url(#bg)"/>
  <g opacity="0.05" stroke="white" stroke-width="1">
    <line x1="0" y1="105" x2="1200" y2="105"/><line x1="0" y1="210" x2="1200" y2="210"/><line x1="0" y1="315" x2="1200" y2="315"/><line x1="0" y1="420" x2="1200" y2="420"/><line x1="0" y1="525" x2="1200" y2="525"/>
    <line x1="150" y1="0" x2="150" y2="630"/><line x1="300" y1="0" x2="300" y2="630"/><line x1="450" y1="0" x2="450" y2="630"/><line x1="600" y1="0" x2="600" y2="630"/><line x1="750" y1="0" x2="750" y2="630"/><line x1="900" y1="0" x2="900" y2="630"/><line x1="1050" y1="0" x2="1050" y2="630"/>
  </g>
  <!-- Scales of justice -->
  <!-- Center pole -->
  <rect x="487" y="160" width="26" height="320" rx="8" fill="white" opacity="0.85"/>
  <!-- Top crossbar -->
  <rect x="290" y="176" width="420" height="22" rx="8" fill="white" opacity="0.85"/>
  <!-- Left scale pan -->
  <line x1="310" y1="198" x2="340" y2="330" stroke="white" stroke-width="6" opacity="0.8"/>
  <line x1="420" y1="198" x2="390" y2="330" stroke="white" stroke-width="6" opacity="0.8"/>
  <path d="M330 330 Q365 360 400 330" stroke="white" stroke-width="6" fill="white" opacity="0.7"/>
  <rect x="290" y="326" width="150" height="14" rx="4" fill="white" opacity="0.6"/>
  <!-- Right scale pan (slightly higher - balanced or one side) -->
  <line x1="580" y1="198" x2="610" y2="300" stroke="white" stroke-width="6" opacity="0.8"/>
  <line x1="690" y1="198" x2="660" y2="300" stroke="white" stroke-width="6" opacity="0.8"/>
  <path d="M600 300 Q635 330 670 300" stroke="white" stroke-width="6" fill="white" opacity="0.7"/>
  <rect x="560" y="296" width="150" height="14" rx="4" fill="white" opacity="0.6"/>
  <!-- Base -->
  <rect x="400" y="480" width="200" height="22" rx="8" fill="white" opacity="0.7"/>
  <rect x="440" y="460" width="120" height="26" rx="6" fill="white" opacity="0.5"/>
  <!-- Google Ads badge -->
  <rect x="820" y="180" width="260" height="100" rx="16" fill="white" opacity="0.15"/>
  <text x="950" y="228" font-family="system-ui,sans-serif" font-size="22" font-weight="800" fill="white" text-anchor="middle">Google Ads</text>
  <text x="950" y="258" font-family="system-ui,sans-serif" font-size="16" fill="white" text-anchor="middle" opacity="0.7">dla kancelarii</text>
  <!-- GBP badge -->
  <rect x="820" y="300" width="260" height="100" rx="16" fill="white" opacity="0.15"/>
  <text x="950" y="348" font-family="system-ui,sans-serif" font-size="22" font-weight="800" fill="white" text-anchor="middle">GBP Local SEO</text>
  <text x="950" y="378" font-family="system-ui,sans-serif" font-size="16" fill="white" text-anchor="middle" opacity="0.7">adwokat / radca</text>
  <text x="100" y="576" font-family="system-ui,sans-serif" font-size="22" font-weight="700" fill="white" opacity="0.35" letter-spacing="6">MIAUSEO · KANCELARIA ADWOKACKA · GOOGLE ADS</text>
</svg>
