<svg width="120" height="90" viewBox="0 0 120 90" fill="none" xmlns="http://www.w3.org/2000/svg">
  <path d="M22 16l3.4 6.9 7.6 1.1-5.5 5.4 1.3 7.6L22 33.4 15.2 37l1.3-7.6-5.5-5.4 7.6-1.1z" fill="#FF6A00" opacity="0.9"/>
  <path d="M41 16l3.4 6.9 7.6 1.1-5.5 5.4 1.3 7.6L41 33.4 34.2 37l1.3-7.6-5.5-5.4 7.6-1.1z" fill="#FF6A00" opacity="0.9"/>
  <path d="M60 16l3.4 6.9 7.6 1.1-5.5 5.4 1.3 7.6L60 33.4 53.2 37l1.3-7.6-5.5-5.4 7.6-1.1z" fill="#FF6A00" opacity="0.9"/>
  <path d="M79 16l3.4 6.9 7.6 1.1-5.5 5.4 1.3 7.6L79 33.4 72.2 37l1.3-7.6-5.5-5.4 7.6-1.1z" fill="#FF6A00" opacity="0.9"/>
  <path d="M98 16l3.4 6.9 7.6 1.1-5.5 5.4 1.3 7.6L98 33.4 91.2 37l1.3-7.6-5.5-5.4 7.6-1.1z" fill="#FF6A00" opacity="0.25"/>
  <line x1="12" y1="76" x2="108" y2="76" stroke="#FF6A00" stroke-width="1.5" opacity="0.3"/>
  <path d="M12 70l12-4 12 3 12-5 12 2 12-6 12 3 12-5" fill="none" stroke="#FF6A00" stroke-width="2.5" stroke-linecap="round" stroke-linejoin="round" opacity="0.75"/>
</svg>
