<svg xmlns="http://www.w3.org/2000/svg" width="1200" height="630" viewBox="0 0 1200 630">
  <defs>
    <linearGradient id="bg" x1="0%" y1="0%" x2="100%" y2="100%">
      <stop offset="0%" stop-color="#38bdf8"/><stop offset="100%" stop-color="#075985"/>
    </linearGradient>
  </defs>
  <rect width="1200" height="630" fill="url(#bg)"/>
  <g opacity="0.06" stroke="white" stroke-width="2" fill="none">
    <path d="M0 80 Q300 40 600 80 T1200 80"/><path d="M0 200 Q300 160 600 200 T1200 200"/>
    <path d="M0 460 Q300 420 600 460 T1200 460"/><path d="M0 560 Q300 520 600 560 T1200 560"/>
  </g>
  <!-- Network nodes -->
  <!-- Central node (GBP) -->
  <circle cx="520" cy="310" r="70" fill="white" opacity="0.2"/>
  <circle cx="520" cy="310" r="55" fill="white" opacity="0.85"/>
  <text x="520" y="300" font-family="system-ui,sans-serif" font-size="14" font-weight="800" fill="#075985" text-anchor="middle">Google</text>
  <text x="520" y="320" font-family="system-ui,sans-serif" font-size="12" font-weight="700" fill="#075985" text-anchor="middle">Business</text>
  <text x="520" y="338" font-family="system-ui,sans-serif" font-size="12" font-weight="700" fill="#075985" text-anchor="middle">Profile</text>
  <!-- Satellite nodes + lines -->
  <line x1="520" y1="255" x2="520" y2="180" stroke="white" stroke-width="5" opacity="0.6"/>
  <circle cx="520" cy="155" r="40" fill="white" opacity="0.7"/>
  <text x="520" y="148" font-family="system-ui,sans-serif" font-size="12" font-weight="700" fill="#075985" text-anchor="middle">Strona</text>
  <text x="520" y="164" font-family="system-ui,sans-serif" font-size="12" font-weight="700" fill="#075985" text-anchor="middle">www</text>

  <line x1="467" y1="270" x2="290" y2="200" stroke="white" stroke-width="5" opacity="0.6"/>
  <circle cx="260" cy="185" r="40" fill="white" opacity="0.7"/>
  <text x="260" y="179" font-family="system-ui,sans-serif" font-size="11" font-weight="700" fill="#075985" text-anchor="middle">Katalogi</text>
  <text x="260" y="195" font-family="system-ui,sans-serif" font-size="11" font-weight="700" fill="#075985" text-anchor="middle">firm</text>

  <line x1="450" y1="310" x2="290" y2="310" stroke="white" stroke-width="5" opacity="0.6"/>
  <circle cx="255" cy="310" r="40" fill="white" opacity="0.7"/>
  <text x="255" y="304" font-family="system-ui,sans-serif" font-size="11" font-weight="700" fill="#075985" text-anchor="middle">Social</text>
  <text x="255" y="320" font-family="system-ui,sans-serif" font-size="11" font-weight="700" fill="#075985" text-anchor="middle">Media</text>

  <line x1="467" y1="350" x2="310" y2="430" stroke="white" stroke-width="5" opacity="0.6"/>
  <circle cx="280" cy="450" r="40" fill="white" opacity="0.7"/>
  <text x="280" y="444" font-family="system-ui,sans-serif" font-size="11" font-weight="700" fill="#075985" text-anchor="middle">Prasa</text>
  <text x="280" y="460" font-family="system-ui,sans-serif" font-size="11" font-weight="700" fill="#075985" text-anchor="middle">lokalna</text>

  <line x1="575" y1="310" x2="740" y2="310" stroke="white" stroke-width="5" opacity="0.6"/>
  <circle cx="770" cy="310" r="40" fill="white" opacity="0.7"/>
  <text x="770" y="304" font-family="system-ui,sans-serif" font-size="11" font-weight="700" fill="#075985" text-anchor="middle">QR</text>
  <text x="770" y="320" font-family="system-ui,sans-serif" font-size="11" font-weight="700" fill="#075985" text-anchor="middle">kody</text>

  <line x1="573" y1="270" x2="740" y2="200" stroke="white" stroke-width="5" opacity="0.6"/>
  <circle cx="770" cy="185" r="40" fill="white" opacity="0.7"/>
  <text x="770" y="179" font-family="system-ui,sans-serif" font-size="11" font-weight="700" fill="#075985" text-anchor="middle">Email</text>
  <text x="770" y="195" font-family="system-ui,sans-serif" font-size="11" font-weight="700" fill="#075985" text-anchor="middle">stopka</text>

  <line x1="573" y1="350" x2="740" y2="420" stroke="white" stroke-width="5" opacity="0.6"/>
  <circle cx="770" cy="445" r="40" fill="white" opacity="0.7"/>
  <text x="770" y="439" font-family="system-ui,sans-serif" font-size="11" font-weight="700" fill="#075985" text-anchor="middle">Partne-</text>
  <text x="770" y="455" font-family="system-ui,sans-serif" font-size="11" font-weight="700" fill="#075985" text-anchor="middle">rzy</text>

  <text x="100" y="576" font-family="system-ui,sans-serif" font-size="22" font-weight="700" fill="white" opacity="0.35" letter-spacing="6">MIAUSEO · LINKI · GOOGLE BUSINESS PROFILE</text>
</svg>
