<svg xmlns="http://www.w3.org/2000/svg" width="1200" height="630" viewBox="0 0 1200 630">
  <defs>
    <linearGradient id="bg" x1="0%" y1="0%" x2="100%" y2="100%">
      <stop offset="0%" style="stop-color:#1a0a00"/>
      <stop offset="100%" style="stop-color:#2d1200"/>
    </linearGradient>
    <radialGradient id="glow" cx="65%" cy="45%" r="55%">
      <stop offset="0%" style="stop-color:#FF6A00;stop-opacity:0.22"/>
      <stop offset="100%" style="stop-color:#FF6A00;stop-opacity:0"/>
    </radialGradient>
  </defs>
  <rect width="1200" height="630" fill="url(#bg)"/>
  <rect width="1200" height="630" fill="url(#glow)"/>
  <g stroke="#FF6A00" stroke-opacity="0.06" stroke-width="1">
    <line x1="0" y1="105" x2="1200" y2="105"/><line x1="0" y1="210" x2="1200" y2="210"/>
    <line x1="0" y1="315" x2="1200" y2="315"/><line x1="0" y1="420" x2="1200" y2="420"/>
    <line x1="0" y1="525" x2="1200" y2="525"/>
    <line x1="200" y1="0" x2="200" y2="630"/><line x1="400" y1="0" x2="400" y2="630"/>
    <line x1="600" y1="0" x2="600" y2="630"/><line x1="800" y1="0" x2="800" y2="630"/>
    <line x1="1000" y1="0" x2="1000" y2="630"/>
  </g>
  <!-- Big stat -->
  <text x="750" y="380" font-family="system-ui, sans-serif" font-size="260" font-weight="900" fill="#FF6A00" opacity="0.08" text-anchor="middle">154</text>
  <!-- Category badge -->
  <rect x="80" y="80" width="160" height="36" rx="18" fill="#FF6A00" opacity="0.9"/>
  <text x="160" y="103" font-family="system-ui, sans-serif" font-size="13" font-weight="700" fill="white" text-anchor="middle" letter-spacing="1.5">REFERENCJE</text>
  <!-- Headline -->
  <text x="80" y="205" font-family="system-ui, sans-serif" font-size="50" font-weight="800" fill="white" letter-spacing="-1">Serwis telefonów</text>
  <text x="80" y="265" font-family="system-ui, sans-serif" font-size="50" font-weight="800" fill="#FF6A00" letter-spacing="-1">Poznań</text>
  <text x="80" y="330" font-family="system-ui, sans-serif" font-size="22" fill="#a16207" font-weight="400">154 wizyty z wizytówki Google w pierwszym miesiącu</text>
  <line x1="80" y1="362" x2="500" y2="362" stroke="#FF6A00" stroke-width="2" opacity="0.5"/>
  <!-- Stats -->
  <text x="80" y="400" font-family="system-ui, sans-serif" font-size="15" font-weight="700" fill="#FF6A00">+26,2% rok do roku</text>
  <text x="80" y="424" font-family="system-ui, sans-serif" font-size="15" fill="#78350f">Wzrost z 122 do 154 wizyt miesięcznie</text>
  <text x="80" y="540" font-family="system-ui, sans-serif" font-size="14" fill="#451a03">6 czerwca 2026 — MiauSEO</text>
  <rect x="80" y="560" width="110" height="32" rx="6" fill="#FF6A00" opacity="0.2"/>
  <text x="135" y="581" font-family="system-ui, sans-serif" font-size="14" font-weight="700" fill="#FF6A00" text-anchor="middle">MiauSEO</text>
</svg>
