<svg xmlns="http://www.w3.org/2000/svg" width="1200" height="630" viewBox="0 0 1200 630">
  <defs>
    <linearGradient id="bg" x1="0%" y1="0%" x2="100%" y2="100%">
      <stop offset="0%" stop-color="#0284c7"/><stop offset="100%" stop-color="#0c4a6e"/>
    </linearGradient>
  </defs>
  <rect width="1200" height="630" fill="url(#bg)"/>
  <g opacity="0.06" fill="white">
    <circle cx="100" cy="100" r="3"/><circle cx="250" cy="100" r="3"/><circle cx="400" cy="100" r="3"/><circle cx="550" cy="100" r="3"/><circle cx="700" cy="100" r="3"/><circle cx="850" cy="100" r="3"/><circle cx="1000" cy="100" r="3"/><circle cx="1150" cy="100" r="3"/>
    <circle cx="100" cy="250" r="3"/><circle cx="250" cy="250" r="3"/><circle cx="400" cy="250" r="3"/><circle cx="550" cy="250" r="3"/><circle cx="700" cy="250" r="3"/><circle cx="850" cy="250" r="3"/><circle cx="1000" cy="250" r="3"/><circle cx="1150" cy="250" r="3"/>
    <circle cx="100" cy="400" r="3"/><circle cx="250" cy="400" r="3"/><circle cx="400" cy="400" r="3"/><circle cx="550" cy="400" r="3"/><circle cx="700" cy="400" r="3"/><circle cx="850" cy="400" r="3"/><circle cx="1000" cy="400" r="3"/><circle cx="1150" cy="400" r="3"/>
    <circle cx="100" cy="550" r="3"/><circle cx="250" cy="550" r="3"/><circle cx="400" cy="550" r="3"/><circle cx="550" cy="550" r="3"/><circle cx="700" cy="550" r="3"/><circle cx="850" cy="550" r="3"/><circle cx="1000" cy="550" r="3"/><circle cx="1150" cy="550" r="3"/>
  </g>
  <!-- Person icon (owner) -->
  <circle cx="440" cy="220" r="52" fill="white" opacity="0.9"/>
  <rect x="380" y="292" width="120" height="90" rx="30" fill="white" opacity="0.9"/>
  <!-- Arrow -->
  <line x1="580" y1="290" x2="650" y2="290" stroke="white" stroke-width="6" opacity="0.8"/>
  <polygon points="650,275 680,290 650,305" fill="white" opacity="0.8"/>
  <!-- Person icon (manager) -->
  <circle cx="760" cy="220" r="52" fill="white" opacity="0.55"/>
  <rect x="700" y="292" width="120" height="90" rx="30" fill="white" opacity="0.55"/>
  <!-- Key icon -->
  <circle cx="600" cy="420" r="32" fill="none" stroke="white" stroke-width="6" opacity="0.7"/>
  <rect x="625" y="415" width="50" height="10" rx="5" fill="white" opacity="0.7"/>
  <rect x="660" y="415" width="10" height="20" rx="3" fill="white" opacity="0.7"/>
  <rect x="645" y="415" width="10" height="15" rx="3" fill="white" opacity="0.7"/>
  <!-- Badge GBP -->
  <rect x="820" y="180" width="220" height="90" rx="16" fill="white" opacity="0.13"/>
  <text x="930" y="232" font-family="system-ui,sans-serif" font-size="22" font-weight="800" fill="white" text-anchor="middle">DOSTĘP DO GBP</text>
  <text x="930" y="256" font-family="system-ui,sans-serif" font-size="14" fill="white" text-anchor="middle" opacity="0.7">bezpiecznie i kontrolowanie</text>
  <text x="100" y="576" font-family="system-ui,sans-serif" font-size="22" font-weight="700" fill="white" opacity="0.35" letter-spacing="6">MIAUSEO · GOOGLE BUSINESS PROFILE · MENEDŻER</text>
</svg>
