<svg xmlns="http://www.w3.org/2000/svg" width="1200" height="630" viewBox="0 0 1200 630">
  <defs><linearGradient id="bg" x1="0%" y1="0%" x2="100%" y2="100%"><stop offset="0%" stop-color="#0891b2"/><stop offset="100%" stop-color="#164e63"/></linearGradient></defs>
  <rect width="1200" height="630" fill="url(#bg)"/>
  <g opacity="0.06" stroke="white" stroke-width="1"><line x1="0" y1="105" x2="1200" y2="105"/><line x1="0" y1="210" x2="1200" y2="210"/><line x1="0" y1="315" x2="1200" y2="315"/><line x1="0" y1="420" x2="1200" y2="420"/><line x1="0" y1="525" x2="1200" y2="525"/><line x1="150" y1="0" x2="150" y2="630"/><line x1="300" y1="0" x2="300" y2="630"/><line x1="450" y1="0" x2="450" y2="630"/><line x1="600" y1="0" x2="600" y2="630"/><line x1="750" y1="0" x2="750" y2="630"/><line x1="900" y1="0" x2="900" y2="630"/><line x1="1050" y1="0" x2="1050" y2="630"/></g>
  <circle cx="120" cy="120" r="180" fill="white" opacity="0.04"/><circle cx="1100" cy="520" r="220" fill="white" opacity="0.04"/>
  <!-- Checklist items -->
  <rect x="320" y="160" width="560" height="70" rx="14" fill="white" opacity="0.12"/>
  <rect x="320" y="250" width="560" height="70" rx="14" fill="white" opacity="0.12"/>
  <rect x="320" y="340" width="560" height="70" rx="14" fill="white" opacity="0.12"/>
  <rect x="320" y="430" width="560" height="70" rx="14" fill="white" opacity="0.12"/>
  <!-- Checkboxes -->
  <rect x="345" y="178" width="34" height="34" rx="6" fill="white" opacity="0.9"/>
  <polyline points="350,195 358,203 374,185" stroke="#0891b2" stroke-width="4" fill="none" stroke-linecap="round" stroke-linejoin="round"/>
  <rect x="345" y="268" width="34" height="34" rx="6" fill="white" opacity="0.9"/>
  <polyline points="350,285 358,293 374,275" stroke="#0891b2" stroke-width="4" fill="none" stroke-linecap="round" stroke-linejoin="round"/>
  <rect x="345" y="358" width="34" height="34" rx="6" fill="white" opacity="0.9"/>
  <polyline points="350,375 358,383 374,365" stroke="#0891b2" stroke-width="4" fill="none" stroke-linecap="round" stroke-linejoin="round"/>
  <rect x="345" y="448" width="34" height="34" rx="6" fill="white" opacity="0.4"/>
  <line x1="356" y1="456" x2="368" y2="474" stroke="#0891b2" stroke-width="3" opacity="0.5"/>
  <!-- Text lines -->
  <rect x="396" y="188" width="200" height="12" rx="6" fill="white" opacity="0.4"/>
  <rect x="396" y="278" width="280" height="12" rx="6" fill="white" opacity="0.4"/>
  <rect x="396" y="368" width="240" height="12" rx="6" fill="white" opacity="0.4"/>
  <rect x="396" y="458" width="180" height="12" rx="6" fill="white" opacity="0.2"/>
  <text x="100" y="576" font-family="system-ui,sans-serif" font-size="22" font-weight="700" fill="white" opacity="0.35" letter-spacing="6">MIAUSEO · GOOGLE BUSINESS PROFILE · ATRYBUTY</text>
</svg>
