<svg width="120" height="90" viewBox="0 0 120 90" fill="none" xmlns="http://www.w3.org/2000/svg">
  <circle cx="18" cy="18" r="5.3" fill="#FF6A00" opacity="0.45"/>
  <circle cx="18" cy="38" r="6.1" fill="#FF6A00" opacity="0.75"/>
  <circle cx="18" cy="58" r="5.0" fill="#FF6A00" opacity="0.35"/>
  <circle cx="18" cy="78" r="6.1" fill="#FF6A00" opacity="0.75"/>
  <circle cx="39" cy="18" r="5.8" fill="#FF6A00" opacity="0.63"/>
  <circle cx="39" cy="38" r="5.9" fill="#FF6A00" opacity="0.66"/>
  <circle cx="39" cy="58" r="4.6" fill="#FF6A00" opacity="0.21"/>
  <circle cx="39" cy="78" r="4.9" fill="#FF6A00" opacity="0.32"/>
  <circle cx="60" cy="18" r="5.0" fill="#FF6A00" opacity="0.34"/>
  <circle cx="60" cy="38" r="6.2" fill="#FF6A00" opacity="0.77"/>
  <circle cx="60" cy="58" r="5.5" fill="#FF6A00" opacity="0.54"/>
  <circle cx="60" cy="78" r="6.3" fill="#FF6A00" opacity="0.79"/>
  <circle cx="81" cy="18" r="4.9" fill="#FF6A00" opacity="0.33"/>
  <circle cx="81" cy="38" r="5.8" fill="#FF6A00" opacity="0.64"/>
  <circle cx="81" cy="58" r="5.1" fill="#FF6A00" opacity="0.41"/>
  <circle cx="81" cy="78" r="5.5" fill="#FF6A00" opacity="0.52"/>
  <circle cx="102" cy="18" r="4.9" fill="#FF6A00" opacity="0.31"/>
  <circle cx="102" cy="38" r="4.6" fill="#FF6A00" opacity="0.21"/>
  <circle cx="102" cy="58" r="6.1" fill="#FF6A00" opacity="0.74"/>
  <circle cx="102" cy="78" r="5.3" fill="#FF6A00" opacity="0.47"/>
</svg>
