<svg xmlns="http://www.w3.org/2000/svg" width="1200" height="630" viewBox="0 0 1200 630">
  <defs><linearGradient id="bg" x1="0%" y1="0%" x2="100%" y2="100%"><stop offset="0%" stop-color="#0369a1"/><stop offset="100%" stop-color="#082f49"/></linearGradient></defs>
  <rect width="1200" height="630" fill="url(#bg)"/>
  <g opacity="0.06" stroke="white" stroke-width="1"><line x1="0" y1="105" x2="1200" y2="105"/><line x1="0" y1="210" x2="1200" y2="210"/><line x1="0" y1="315" x2="1200" y2="315"/><line x1="0" y1="420" x2="1200" y2="420"/><line x1="0" y1="525" x2="1200" y2="525"/><line x1="150" y1="0" x2="150" y2="630"/><line x1="300" y1="0" x2="300" y2="630"/><line x1="450" y1="0" x2="450" y2="630"/><line x1="600" y1="0" x2="600" y2="630"/><line x1="750" y1="0" x2="750" y2="630"/><line x1="900" y1="0" x2="900" y2="630"/><line x1="1050" y1="0" x2="1050" y2="630"/></g>
  <circle cx="120" cy="120" r="180" fill="white" opacity="0.04"/><circle cx="1100" cy="520" r="220" fill="white" opacity="0.04"/>
  <!-- Clock -->
  <circle cx="600" cy="280" r="160" fill="white" opacity="0.15"/>
  <circle cx="600" cy="280" r="140" fill="none" stroke="white" stroke-width="8" opacity="0.8"/>
  <!-- Hour marks -->
  <line x1="600" y1="148" x2="600" y2="168" stroke="white" stroke-width="6" opacity="0.8"/>
  <line x1="600" y1="392" x2="600" y2="412" stroke="white" stroke-width="6" opacity="0.8"/>
  <line x1="748" y1="280" x2="728" y2="280" stroke="white" stroke-width="6" opacity="0.8"/>
  <line x1="452" y1="280" x2="472" y2="280" stroke="white" stroke-width="6" opacity="0.8"/>
  <!-- Hands -->
  <line x1="600" y1="280" x2="600" y2="180" stroke="white" stroke-width="8" stroke-linecap="round" opacity="0.9"/>
  <line x1="600" y1="280" x2="680" y2="300" stroke="white" stroke-width="6" stroke-linecap="round" opacity="0.9"/>
  <circle cx="600" cy="280" r="12" fill="white" opacity="0.9"/>
  <!-- Check mark badge -->
  <circle cx="820" cy="420" r="50" fill="#22c55e" opacity="0.9"/>
  <polyline points="800,418 814,432 842,406" stroke="white" stroke-width="6" fill="none" stroke-linecap="round" stroke-linejoin="round"/>
  <text x="100" y="576" font-family="system-ui,sans-serif" font-size="22" font-weight="700" fill="white" opacity="0.35" letter-spacing="6">MIAUSEO · GOOGLE BUSINESS PROFILE · GODZINY</text>
</svg>
