<svg xmlns="http://www.w3.org/2000/svg" width="1200" height="630" viewBox="0 0 1200 630">
  <defs>
    <linearGradient id="bg" x1="0%" y1="0%" x2="100%" y2="100%">
      <stop offset="0%" stop-color="#60a5fa"/><stop offset="100%" stop-color="#1d4ed8"/>
    </linearGradient>
  </defs>
  <rect width="1200" height="630" fill="url(#bg)"/>
  <g opacity="0.06" stroke="white" stroke-width="1">
    <line x1="0" y1="126" x2="1200" y2="126"/><line x1="0" y1="252" x2="1200" y2="252"/>
    <line x1="0" y1="378" x2="1200" y2="378"/><line x1="0" y1="504" x2="1200" y2="504"/>
    <line x1="150" y1="0" x2="150" y2="630"/><line x1="300" y1="0" x2="300" y2="630"/>
    <line x1="450" y1="0" x2="450" y2="630"/><line x1="600" y1="0" x2="600" y2="630"/>
    <line x1="750" y1="0" x2="750" y2="630"/><line x1="900" y1="0" x2="900" y2="630"/>
    <line x1="1050" y1="0" x2="1050" y2="630"/>
  </g>
  <circle cx="150" cy="480" r="200" fill="white" opacity="0.04"/>
  <circle cx="1050" cy="150" r="180" fill="white" opacity="0.04"/>
  <!-- Padlock body -->
  <rect x="340" y="280" width="260" height="220" rx="28" fill="white" opacity="0.85"/>
  <!-- Padlock shackle -->
  <path d="M390 280 L390 200 Q470 120 550 200 L550 280" fill="none" stroke="white" stroke-width="28" stroke-linecap="round" opacity="0.85"/>
  <!-- Keyhole -->
  <circle cx="470" cy="370" r="32" fill="#1d4ed8"/>
  <rect x="454" y="370" width="32" height="50" rx="8" fill="#1d4ed8"/>
  <!-- Key -->
  <g transform="rotate(-35 780 280)">
    <circle cx="780" cy="220" r="55" fill="none" stroke="white" stroke-width="18" opacity="0.9"/>
    <rect x="820" y="215" width="140" height="18" rx="6" fill="white" opacity="0.9"/>
    <rect x="905" y="233" width="18" height="35" rx="4" fill="white" opacity="0.9"/>
    <rect x="935" y="233" width="18" height="28" rx="4" fill="white" opacity="0.9"/>
  </g>
  <!-- Arrow connecting key to lock -->
  <path d="M700 310 Q620 360 580 370" stroke="white" stroke-width="6" fill="none" stroke-dasharray="12,8" stroke-linecap="round" opacity="0.5"/>
  <text x="100" y="576" font-family="system-ui,sans-serif" font-size="22" font-weight="700" fill="white" opacity="0.35" letter-spacing="6">MIAUSEO · ODZYSKAJ DOSTĘP · GOOGLE BUSINESS PROFILE</text>
</svg>
