<svg xmlns="http://www.w3.org/2000/svg" width="1200" height="630" viewBox="0 0 1200 630">
  <defs>
    <linearGradient id="bg" x1="0%" y1="0%" x2="100%" y2="100%">
      <stop offset="0%" stop-color="#f59e0b"/><stop offset="100%" stop-color="#7c2d12"/>
    </linearGradient>
  </defs>
  <rect width="1200" height="630" fill="url(#bg)"/>
  <g opacity="0.06" fill="white">
    <circle cx="100" cy="100" r="3"/><circle cx="250" cy="100" r="3"/><circle cx="400" cy="100" r="3"/><circle cx="550" cy="100" r="3"/><circle cx="700" cy="100" r="3"/><circle cx="850" cy="100" r="3"/><circle cx="1000" cy="100" r="3"/><circle cx="1150" cy="100" r="3"/>
    <circle cx="100" cy="250" r="3"/><circle cx="250" cy="250" r="3"/><circle cx="400" cy="250" r="3"/><circle cx="550" cy="250" r="3"/><circle cx="700" cy="250" r="3"/><circle cx="850" cy="250" r="3"/><circle cx="1000" cy="250" r="3"/><circle cx="1150" cy="250" r="3"/>
    <circle cx="100" cy="400" r="3"/><circle cx="250" cy="400" r="3"/><circle cx="400" cy="400" r="3"/><circle cx="550" cy="400" r="3"/><circle cx="700" cy="400" r="3"/><circle cx="850" cy="400" r="3"/><circle cx="1000" cy="400" r="3"/><circle cx="1150" cy="400" r="3"/>
    <circle cx="100" cy="550" r="3"/><circle cx="250" cy="550" r="3"/><circle cx="400" cy="550" r="3"/><circle cx="550" cy="550" r="3"/><circle cx="700" cy="550" r="3"/><circle cx="850" cy="550" r="3"/><circle cx="1000" cy="550" r="3"/><circle cx="1150" cy="550" r="3"/>
  </g>
  <!-- Prohibition sign: no SEO -->
  <g transform="translate(320 300)">
    <circle cx="0" cy="0" r="150" fill="none" stroke="white" stroke-width="26" opacity="0.95"/>
    <text x="0" y="34" font-family="system-ui,sans-serif" font-size="96" font-weight="900" fill="white" text-anchor="middle" opacity="0.95">SEO</text>
    <line x1="-106" y1="-106" x2="106" y2="106" stroke="white" stroke-width="26" stroke-linecap="round" opacity="0.95"/>
  </g>
  <!-- Right text block -->
  <text x="642" y="150" font-family="system-ui,sans-serif" font-size="26" font-weight="800" fill="white" opacity="0.8" letter-spacing="2">KIEDY NIE WARTO</text>
  <text x="632" y="330" font-family="system-ui,sans-serif" font-size="220" font-weight="900" fill="white" opacity="0.95">7</text>
  <text x="780" y="228" font-family="system-ui,sans-serif" font-size="40" font-weight="800" fill="white" opacity="0.92">sytuacji,</text>
  <text x="780" y="278" font-family="system-ui,sans-serif" font-size="40" font-weight="800" fill="white" opacity="0.92">gdy SEO to</text>
  <text x="780" y="328" font-family="system-ui,sans-serif" font-size="40" font-weight="800" fill="white" opacity="0.92">zły pomysł</text>
  <!-- pills -->
  <rect x="642" y="400" width="196" height="46" rx="23" fill="white" opacity="0.18"/>
  <text x="740" y="430" font-family="system-ui,sans-serif" font-size="22" font-weight="700" fill="white" text-anchor="middle" opacity="0.95">Świeży start</text>
  <rect x="854" y="400" width="192" height="46" rx="23" fill="white" opacity="0.18"/>
  <text x="950" y="430" font-family="system-ui,sans-serif" font-size="22" font-weight="700" fill="white" text-anchor="middle" opacity="0.95">Mały budżet</text>
  <rect x="642" y="458" width="250" height="46" rx="23" fill="white" opacity="0.18"/>
  <text x="767" y="488" font-family="system-ui,sans-serif" font-size="22" font-weight="700" fill="white" text-anchor="middle" opacity="0.95">Zero wyszukiwań</text>
  <text x="100" y="592" font-family="system-ui,sans-serif" font-size="22" font-weight="700" fill="white" opacity="0.4" letter-spacing="6">MIAUSEO · KIEDY NIE POZYCJONOWAĆ STRONY</text>
</svg>
