<svg xmlns="http://www.w3.org/2000/svg" width="1200" height="630" viewBox="0 0 1200 630">
  <defs>
    <linearGradient id="bg" x1="0%" y1="0%" x2="100%" y2="100%">
      <stop offset="0%" stop-color="#be185d"/>
      <stop offset="100%" stop-color="#500724"/>
    </linearGradient>
  </defs>
  <rect width="1200" height="630" fill="url(#bg)"/>
  <g opacity="0.06" stroke="white" stroke-width="1">
    <line x1="0" y1="105" x2="1200" y2="105"/><line x1="0" y1="210" x2="1200" y2="210"/><line x1="0" y1="315" x2="1200" y2="315"/><line x1="0" y1="420" x2="1200" y2="420"/><line x1="0" y1="525" x2="1200" y2="525"/>
    <line x1="150" y1="0" x2="150" y2="630"/><line x1="300" y1="0" x2="300" y2="630"/><line x1="450" y1="0" x2="450" y2="630"/><line x1="600" y1="0" x2="600" y2="630"/><line x1="750" y1="0" x2="750" y2="630"/><line x1="900" y1="0" x2="900" y2="630"/><line x1="1050" y1="0" x2="1050" y2="630"/>
  </g>
  <circle cx="120" cy="120" r="180" fill="white" opacity="0.04"/>
  <circle cx="1100" cy="520" r="220" fill="white" opacity="0.04"/>
  <!-- Database cylinder -->
  <ellipse cx="600" cy="185" rx="160" ry="40" fill="white" opacity="0.2"/>
  <rect x="440" y="185" width="320" height="220" fill="white" opacity="0.15"/>
  <ellipse cx="600" cy="285" rx="160" ry="40" fill="white" opacity="0.2"/>
  <ellipse cx="600" cy="385" rx="160" ry="40" fill="white" opacity="0.2"/>
  <ellipse cx="600" cy="405" rx="160" ry="40" fill="white" opacity="0.9"/>
  <rect x="440" y="185" width="320" height="220" fill="none" stroke="white" stroke-width="3" opacity="0.2"/>
  <!-- Broken line through DB -->
  <path d="M530 260 L570 260 L550 310 L600 310 L580 360 L630 360" fill="none" stroke="#ef4444" stroke-width="8" stroke-linecap="round" stroke-linejoin="round" opacity="0.9"/>
  <!-- Error badge -->
  <circle cx="820" cy="200" r="55" fill="#ef4444" opacity="0.9"/>
  <text x="820" y="220" font-family="system-ui,sans-serif" font-size="60" font-weight="900" fill="white" text-anchor="middle">!</text>
  <text x="100" y="576" font-family="system-ui,sans-serif" font-size="22" font-weight="700" fill="white" opacity="0.35" letter-spacing="6">MIAUSEO · WORDPRESS · BAZA DANYCH</text>
</svg>
