<svg xmlns="http://www.w3.org/2000/svg" width="1200" height="630" viewBox="0 0 1200 630">
  <defs>
    <linearGradient id="bg" x1="0%" y1="0%" x2="100%" y2="100%">
      <stop offset="0%" stop-color="#475569"/>
      <stop offset="100%" stop-color="#0f172a"/>
    </linearGradient>
  </defs>
  <rect width="1200" height="630" fill="url(#bg)"/>
  <g opacity="0.06" stroke="white" stroke-width="1">
    <line x1="0" y1="105" x2="1200" y2="105"/><line x1="0" y1="210" x2="1200" y2="210"/><line x1="0" y1="315" x2="1200" y2="315"/><line x1="0" y1="420" x2="1200" y2="420"/><line x1="0" y1="525" x2="1200" y2="525"/>
    <line x1="150" y1="0" x2="150" y2="630"/><line x1="300" y1="0" x2="300" y2="630"/><line x1="450" y1="0" x2="450" y2="630"/><line x1="600" y1="0" x2="600" y2="630"/><line x1="750" y1="0" x2="750" y2="630"/><line x1="900" y1="0" x2="900" y2="630"/><line x1="1050" y1="0" x2="1050" y2="630"/>
  </g>
  <circle cx="120" cy="120" r="180" fill="white" opacity="0.04"/>
  <circle cx="1100" cy="520" r="220" fill="white" opacity="0.04"/>
  <!-- Gear big -->
  <circle cx="560" cy="300" r="110" fill="none" stroke="white" stroke-width="30" opacity="0.2"/>
  <circle cx="560" cy="300" r="70" fill="white" opacity="0.15"/>
  <circle cx="560" cy="300" r="35" fill="white" opacity="0.8"/>
  <!-- Gear teeth -->
  <rect x="543" y="165" width="34" height="50" rx="8" fill="white" opacity="0.2"/>
  <rect x="543" y="385" width="34" height="50" rx="8" fill="white" opacity="0.2"/>
  <rect x="425" y="283" width="50" height="34" rx="8" fill="white" opacity="0.2"/>
  <rect x="645" y="283" width="50" height="34" rx="8" fill="white" opacity="0.2"/>
  <!-- Gear small -->
  <circle cx="730" cy="200" r="65" fill="none" stroke="white" stroke-width="18" opacity="0.3"/>
  <circle cx="730" cy="200" r="38" fill="white" opacity="0.2"/>
  <circle cx="730" cy="200" r="18" fill="white" opacity="0.7"/>
  <!-- Wrench -->
  <path d="M790 420 L900 310 Q920 290 940 300 Q960 310 950 330 L840 440 Z" fill="white" opacity="0.85"/>
  <circle cx="810" cy="440" r="35" fill="white" opacity="0.85"/>
  <!-- Error badge -->
  <circle cx="870" cy="160" r="50" fill="#ef4444" opacity="0.9"/>
  <text x="870" y="180" font-family="system-ui,sans-serif" font-size="54" font-weight="900" fill="white" text-anchor="middle">!</text>
  <text x="100" y="576" font-family="system-ui,sans-serif" font-size="22" font-weight="700" fill="white" opacity="0.35" letter-spacing="6">MIAUSEO · WORDPRESS · DIAGNOSTYKA</text>
</svg>
