<svg xmlns="http://www.w3.org/2000/svg" width="1200" height="630" viewBox="0 0 1200 630">
  <defs>
    <linearGradient id="bg" x1="0%" y1="0%" x2="100%" y2="100%">
      <stop offset="0%" stop-color="#0d9488"/>
      <stop offset="100%" stop-color="#064e3b"/>
    </linearGradient>
  </defs>
  <rect width="1200" height="630" fill="url(#bg)"/>
  <g opacity="0.06" stroke="white" stroke-width="1">
    <line x1="0" y1="105" x2="1200" y2="105"/><line x1="0" y1="210" x2="1200" y2="210"/><line x1="0" y1="315" x2="1200" y2="315"/><line x1="0" y1="420" x2="1200" y2="420"/><line x1="0" y1="525" x2="1200" y2="525"/>
    <line x1="150" y1="0" x2="150" y2="630"/><line x1="300" y1="0" x2="300" y2="630"/><line x1="450" y1="0" x2="450" y2="630"/><line x1="600" y1="0" x2="600" y2="630"/><line x1="750" y1="0" x2="750" y2="630"/><line x1="900" y1="0" x2="900" y2="630"/><line x1="1050" y1="0" x2="1050" y2="630"/>
  </g>
  <circle cx="120" cy="120" r="180" fill="white" opacity="0.04"/>
  <circle cx="1100" cy="520" r="220" fill="white" opacity="0.04"/>
  <!-- Speedometer arc -->
  <path d="M300 370 A300 300 0 0 1 900 370" fill="none" stroke="white" stroke-width="30" opacity="0.15"/>
  <path d="M300 370 A300 300 0 0 1 600 90" fill="none" stroke="white" stroke-width="30" opacity="0.4"/>
  <!-- Speed ticks -->
  <line x1="305" y1="360" x2="335" y2="348" stroke="white" stroke-width="4" opacity="0.5"/>
  <line x1="350" y1="230" x2="368" y2="255" stroke="white" stroke-width="4" opacity="0.5"/>
  <line x1="600" y1="95" x2="600" y2="128" stroke="white" stroke-width="6" opacity="0.8"/>
  <line x1="850" y1="230" x2="832" y2="255" stroke="white" stroke-width="4" opacity="0.5"/>
  <line x1="895" y1="360" x2="865" y2="348" stroke="white" stroke-width="4" opacity="0.5"/>
  <!-- Needle pointing slow (left) -->
  <line x1="600" y1="370" x2="370" y2="250" stroke="white" stroke-width="10" stroke-linecap="round" opacity="0.9"/>
  <circle cx="600" cy="370" r="22" fill="white" opacity="0.9"/>
  <circle cx="600" cy="370" r="10" fill="#0d9488"/>
  <!-- Snail shell suggestion -->
  <text x="700" y="330" font-family="system-ui,sans-serif" font-size="28" font-weight="700" fill="white" opacity="0.4">7s</text>
  <!-- Labels -->
  <text x="290" y="415" font-family="system-ui,sans-serif" font-size="22" fill="white" opacity="0.5">WOLNO</text>
  <text x="820" y="415" font-family="system-ui,sans-serif" font-size="22" fill="white" opacity="0.5">SZYBKO</text>
  <text x="100" y="576" font-family="system-ui,sans-serif" font-size="22" font-weight="700" fill="white" opacity="0.35" letter-spacing="6">MIAUSEO · WORDPRESS · OPTYMALIZACJA</text>
</svg>
