<svg xmlns="http://www.w3.org/2000/svg" width="1200" height="630" viewBox="0 0 1200 630">
  <defs><linearGradient id="bg" x1="0%" y1="0%" x2="100%" y2="100%"><stop offset="0%" stop-color="#0284c7"/><stop offset="100%" stop-color="#0c4a6e"/></linearGradient></defs>
  <rect width="1200" height="630" fill="url(#bg)"/>
  <g opacity="0.06" stroke="white" stroke-width="1"><line x1="0" y1="105" x2="1200" y2="105"/><line x1="0" y1="210" x2="1200" y2="210"/><line x1="0" y1="315" x2="1200" y2="315"/><line x1="0" y1="420" x2="1200" y2="420"/><line x1="0" y1="525" x2="1200" y2="525"/><line x1="150" y1="0" x2="150" y2="630"/><line x1="300" y1="0" x2="300" y2="630"/><line x1="450" y1="0" x2="450" y2="630"/><line x1="600" y1="0" x2="600" y2="630"/><line x1="750" y1="0" x2="750" y2="630"/><line x1="900" y1="0" x2="900" y2="630"/><line x1="1050" y1="0" x2="1050" y2="630"/></g>
  <circle cx="120" cy="120" r="180" fill="white" opacity="0.04"/><circle cx="1100" cy="520" r="220" fill="white" opacity="0.04"/>
  <!-- Tag/label icon -->
  <rect x="350" y="180" width="200" height="80" rx="16" fill="white" opacity="0.9"/>
  <rect x="350" y="290" width="260" height="80" rx="16" fill="white" opacity="0.7"/>
  <rect x="350" y="400" width="160" height="80" rx="16" fill="white" opacity="0.5"/>
  <circle cx="380" cy="220" r="12" fill="#0284c7"/>
  <circle cx="380" cy="330" r="12" fill="#0284c7"/>
  <circle cx="380" cy="440" r="12" fill="#0284c7"/>
  <line x1="402" y1="220" x2="520" y2="220" stroke="#0284c7" stroke-width="4" stroke-linecap="round"/>
  <line x1="402" y1="330" x2="580" y2="330" stroke="#0284c7" stroke-width="4" stroke-linecap="round"/>
  <line x1="402" y1="440" x2="480" y2="440" stroke="#0284c7" stroke-width="4" stroke-linecap="round"/>
  <!-- Star/badge -->
  <polygon points="800,200 820,260 885,260 832,298 852,358 800,320 748,358 768,298 715,260 780,260" fill="white" opacity="0.9"/>
  <text x="100" y="576" font-family="system-ui,sans-serif" font-size="22" font-weight="700" fill="white" opacity="0.35" letter-spacing="6">MIAUSEO · GOOGLE BUSINESS PROFILE · KATEGORIE</text>
</svg>
