<svg xmlns="http://www.w3.org/2000/svg" width="1200" height="630" viewBox="0 0 1200 630">
  <defs><linearGradient id="bg" x1="0%" y1="0%" x2="100%" y2="100%"><stop offset="0%" stop-color="#0284c7"/><stop offset="100%" stop-color="#0a2540"/></linearGradient></defs>
  <rect width="1200" height="630" fill="url(#bg)"/>
  <g opacity="0.06" stroke="white" stroke-width="1"><line x1="0" y1="105" x2="1200" y2="105"/><line x1="0" y1="210" x2="1200" y2="210"/><line x1="0" y1="315" x2="1200" y2="315"/><line x1="0" y1="420" x2="1200" y2="420"/><line x1="0" y1="525" x2="1200" y2="525"/><line x1="150" y1="0" x2="150" y2="630"/><line x1="300" y1="0" x2="300" y2="630"/><line x1="450" y1="0" x2="450" y2="630"/><line x1="600" y1="0" x2="600" y2="630"/><line x1="750" y1="0" x2="750" y2="630"/><line x1="900" y1="0" x2="900" y2="630"/><line x1="1050" y1="0" x2="1050" y2="630"/></g>
  <circle cx="120" cy="120" r="180" fill="white" opacity="0.04"/><circle cx="1100" cy="520" r="220" fill="white" opacity="0.04"/>
  <!-- Form fields -->
  <rect x="300" y="150" width="600" height="55" rx="12" fill="white" opacity="0.85"/>
  <rect x="300" y="225" width="600" height="55" rx="12" fill="white" opacity="0.7"/>
  <rect x="300" y="300" width="600" height="55" rx="12" fill="white" opacity="0.55"/>
  <rect x="300" y="375" width="600" height="55" rx="12" fill="white" opacity="0.4"/>
  <rect x="300" y="450" width="600" height="55" rx="12" fill="white" opacity="0.25"/>
  <!-- Field icons -->
  <rect x="318" y="165" width="25" height="25" rx="4" fill="#0284c7" opacity="0.6"/>
  <rect x="318" y="240" width="25" height="25" rx="4" fill="#0284c7" opacity="0.5"/>
  <rect x="318" y="315" width="25" height="25" rx="4" fill="#0284c7" opacity="0.4"/>
  <rect x="318" y="390" width="25" height="25" rx="4" fill="#0284c7" opacity="0.3"/>
  <rect x="318" y="465" width="25" height="25" rx="4" fill="#0284c7" opacity="0.2"/>
  <!-- Fill indicators -->
  <rect x="355" y="172" width="180" height="10" rx="5" fill="#0284c7" opacity="0.5"/>
  <rect x="355" y="247" width="240" height="10" rx="5" fill="#0284c7" opacity="0.4"/>
  <rect x="355" y="322" width="140" height="10" rx="5" fill="#0284c7" opacity="0.3"/>
  <text x="100" y="576" font-family="system-ui,sans-serif" font-size="22" font-weight="700" fill="white" opacity="0.35" letter-spacing="6">MIAUSEO · GOOGLE BUSINESS PROFILE · INFORMACJE</text>
</svg>
