<svg xmlns="http://www.w3.org/2000/svg" width="1200" height="630" viewBox="0 0 1200 630">
  <defs>
    <linearGradient id="bg" x1="0%" y1="0%" x2="100%" y2="100%">
      <stop offset="0%" stop-color="#ea580c"/>
      <stop offset="100%" stop-color="#7c2d12"/>
    </linearGradient>
  </defs>
  <rect width="1200" height="630" fill="url(#bg)"/>
  <g opacity="0.06" stroke="white" stroke-width="1">
    <line x1="0" y1="105" x2="1200" y2="105"/><line x1="0" y1="210" x2="1200" y2="210"/><line x1="0" y1="315" x2="1200" y2="315"/><line x1="0" y1="420" x2="1200" y2="420"/><line x1="0" y1="525" x2="1200" y2="525"/>
    <line x1="150" y1="0" x2="150" y2="630"/><line x1="300" y1="0" x2="300" y2="630"/><line x1="450" y1="0" x2="450" y2="630"/><line x1="600" y1="0" x2="600" y2="630"/><line x1="750" y1="0" x2="750" y2="630"/><line x1="900" y1="0" x2="900" y2="630"/><line x1="1050" y1="0" x2="1050" y2="630"/>
  </g>
  <circle cx="120" cy="120" r="180" fill="white" opacity="0.04"/>
  <circle cx="1100" cy="520" r="220" fill="white" opacity="0.04"/>
  <!-- Server stack -->
  <rect x="380" y="200" width="360" height="65" rx="12" fill="white" opacity="0.15"/>
  <rect x="380" y="280" width="360" height="65" rx="12" fill="white" opacity="0.15"/>
  <rect x="380" y="360" width="360" height="65" rx="12" fill="white" opacity="0.15"/>
  <!-- Server lights -->
  <circle cx="420" cy="232" r="8" fill="#22c55e" opacity="0.9"/>
  <circle cx="446" cy="232" r="8" fill="#22c55e" opacity="0.9"/>
  <circle cx="420" cy="312" r="8" fill="#22c55e" opacity="0.9"/>
  <circle cx="446" cy="312" r="8" fill="#fbbf24" opacity="0.9"/>
  <circle cx="420" cy="392" r="8" fill="#ef4444" opacity="1"/>
  <circle cx="446" cy="392" r="8" fill="#ef4444" opacity="1"/>
  <!-- 500 text -->
  <text x="590" y="430" font-family="system-ui,sans-serif" font-size="130" font-weight="900" fill="white" opacity="0.9" text-anchor="middle">500</text>
  <!-- Warning triangle -->
  <polygon points="880,160 960,300 800,300" fill="white" opacity="0.9"/>
  <text x="880" y="282" font-family="system-ui,sans-serif" font-size="80" font-weight="900" fill="#ea580c" text-anchor="middle">!</text>
  <text x="100" y="576" font-family="system-ui,sans-serif" font-size="22" font-weight="700" fill="white" opacity="0.35" letter-spacing="6">MIAUSEO · WORDPRESS · BŁĘDY SERWERA</text>
</svg>
