<svg xmlns="http://www.w3.org/2000/svg" width="1200" height="630" viewBox="0 0 1200 630">
  <defs>
    <linearGradient id="bg" x1="0%" y1="0%" x2="100%" y2="100%">
      <stop offset="0%" stop-color="#dc2626"/><stop offset="100%" stop-color="#7f1d1d"/>
    </linearGradient>
  </defs>
  <rect width="1200" height="630" fill="url(#bg)"/>
  <g opacity="0.07" fill="white">
    <circle cx="100" cy="100" r="3"/><circle cx="250" cy="100" r="3"/><circle cx="400" cy="100" r="3"/><circle cx="550" cy="100" r="3"/><circle cx="700" cy="100" r="3"/><circle cx="850" cy="100" r="3"/><circle cx="1000" cy="100" r="3"/><circle cx="1150" cy="100" r="3"/>
    <circle cx="100" cy="250" r="3"/><circle cx="250" cy="250" r="3"/><circle cx="400" cy="250" r="3"/><circle cx="550" cy="250" r="3"/><circle cx="700" cy="250" r="3"/><circle cx="850" cy="250" r="3"/><circle cx="1000" cy="250" r="3"/><circle cx="1150" cy="250" r="3"/>
    <circle cx="100" cy="400" r="3"/><circle cx="250" cy="400" r="3"/><circle cx="400" cy="400" r="3"/><circle cx="550" cy="400" r="3"/><circle cx="700" cy="400" r="3"/><circle cx="850" cy="400" r="3"/><circle cx="1000" cy="400" r="3"/><circle cx="1150" cy="400" r="3"/>
    <circle cx="100" cy="550" r="3"/><circle cx="250" cy="550" r="3"/><circle cx="400" cy="550" r="3"/><circle cx="550" cy="550" r="3"/><circle cx="700" cy="550" r="3"/><circle cx="850" cy="550" r="3"/><circle cx="1000" cy="550" r="3"/><circle cx="1150" cy="550" r="3"/>
  </g>
  <!-- Phone icon -->
  <circle cx="520" cy="280" r="120" fill="white" opacity="0.1"/>
  <path d="M490 230 Q490 220 500 220 L535 220 Q545 220 545 230 L545 330 Q545 340 535 340 L500 340 Q490 340 490 330 Z" fill="white" opacity="0.7" rx="8"/>
  <circle cx="517" cy="328" r="6" fill="#dc2626" opacity="0.9"/>
  <!-- X / STOP -->
  <circle cx="520" cy="280" r="45" fill="none" stroke="white" stroke-width="8" opacity="0.9"/>
  <line x1="495" y1="255" x2="545" y2="305" stroke="white" stroke-width="8" opacity="0.9" stroke-linecap="round"/>
  <line x1="545" y1="255" x2="495" y2="305" stroke="white" stroke-width="8" opacity="0.9" stroke-linecap="round"/>
  <!-- Warning text -->
  <rect x="680" y="200" width="360" height="50" rx="10" fill="white" opacity="0.15"/>
  <text x="860" y="233" font-family="system-ui,sans-serif" font-size="22" font-weight="800" fill="white" text-anchor="middle">TO JEST OSZUSTWO</text>
  <rect x="680" y="265" width="360" height="50" rx="10" fill="white" opacity="0.1"/>
  <text x="860" y="298" font-family="system-ui,sans-serif" font-size="18" fill="white" text-anchor="middle" opacity="0.8">Google nie dzwoni po opłaty</text>
  <rect x="680" y="330" width="360" height="50" rx="10" fill="white" opacity="0.1"/>
  <text x="860" y="363" font-family="system-ui,sans-serif" font-size="18" fill="white" text-anchor="middle" opacity="0.8">Wizytówka GBP jest bezpłatna</text>
  <text x="100" y="576" font-family="system-ui,sans-serif" font-size="22" font-weight="700" fill="white" opacity="0.35" letter-spacing="6">MIAUSEO · OCHRONA PRZED OSZUSTWAMI · GOOGLE</text>
</svg>
