<svg xmlns="http://www.w3.org/2000/svg" width="1200" height="630" viewBox="0 0 1200 630">
  <defs>
    <linearGradient id="bg" x1="0%" y1="0%" x2="100%" y2="100%">
      <stop offset="0%" style="stop-color:#022c22"/>
      <stop offset="100%" style="stop-color:#064e3b"/>
    </linearGradient>
    <radialGradient id="glow" cx="65%" cy="45%" r="55%">
      <stop offset="0%" style="stop-color:#0d9488;stop-opacity:0.2"/>
      <stop offset="100%" style="stop-color:#0d9488;stop-opacity:0"/>
    </radialGradient>
  </defs>
  <rect width="1200" height="630" fill="url(#bg)"/>
  <rect width="1200" height="630" fill="url(#glow)"/>
  <g stroke="#0d9488" stroke-opacity="0.07" stroke-width="1">
    <line x1="0" y1="105" x2="1200" y2="105"/><line x1="0" y1="210" x2="1200" y2="210"/>
    <line x1="0" y1="315" x2="1200" y2="315"/><line x1="0" y1="420" x2="1200" y2="420"/>
    <line x1="0" y1="525" x2="1200" y2="525"/>
    <line x1="200" y1="0" x2="200" y2="630"/><line x1="400" y1="0" x2="400" y2="630"/>
    <line x1="600" y1="0" x2="600" y2="630"/><line x1="800" y1="0" x2="800" y2="630"/>
    <line x1="1000" y1="0" x2="1000" y2="630"/>
  </g>
  <text x="750" y="400" font-family="system-ui, sans-serif" font-size="200" font-weight="900" fill="#0d9488" opacity="0.07" text-anchor="middle">#3</text>
  <rect x="80" y="80" width="160" height="36" rx="18" fill="#0f766e" opacity="0.9"/>
  <text x="160" y="103" font-family="system-ui, sans-serif" font-size="13" font-weight="700" fill="white" text-anchor="middle" letter-spacing="1.5">REFERENCJE</text>
  <text x="80" y="205" font-family="system-ui, sans-serif" font-size="46" font-weight="800" fill="white" letter-spacing="-1">Masaż z dojazdem</text>
  <text x="80" y="261" font-family="system-ui, sans-serif" font-size="46" font-weight="800" fill="#2dd4bf" letter-spacing="-1">Poznań</text>
  <text x="80" y="326" font-family="system-ui, sans-serif" font-size="21" fill="#0f766e" font-weight="400">Top 3 Google Maps w 60 dni — 50+ konkurentów</text>
  <line x1="80" y1="358" x2="500" y2="358" stroke="#0d9488" stroke-width="2" opacity="0.5"/>
  <text x="80" y="396" font-family="system-ui, sans-serif" font-size="15" font-weight="700" fill="#2dd4bf">1 → 14 opinii w pierwszym miesiącu</text>
  <text x="80" y="420" font-family="system-ui, sans-serif" font-size="15" fill="#065f46">Z zera nowych klientów z Google do kilku tygodniowo</text>
  <text x="80" y="540" font-family="system-ui, sans-serif" font-size="14" fill="#022c22">6 czerwca 2026 — MiauSEO</text>
  <rect x="80" y="560" width="110" height="32" rx="6" fill="#0d9488" opacity="0.25"/>
  <text x="135" y="581" font-family="system-ui, sans-serif" font-size="14" font-weight="700" fill="#2dd4bf" text-anchor="middle">MiauSEO</text>
</svg>
