<svg xmlns="http://www.w3.org/2000/svg" width="1200" height="630" viewBox="0 0 1200 630">
  <defs>
    <linearGradient id="bg" x1="0%" y1="0%" x2="100%" y2="100%">
      <stop offset="0%" stop-color="#fbbf24"/><stop offset="100%" stop-color="#78350f"/>
    </linearGradient>
  </defs>
  <rect width="1200" height="630" fill="url(#bg)"/>
  <g opacity="0.06" stroke="white" stroke-width="2" fill="none">
    <path d="M0 80 Q300 40 600 80 T1200 80"/><path d="M0 200 Q300 160 600 200 T1200 200"/>
    <path d="M0 460 Q300 420 600 460 T1200 460"/><path d="M0 560 Q300 520 600 560 T1200 560"/>
  </g>
  <!-- Car body silhouette -->
  <path d="M180 350 L240 270 L380 230 L640 220 L780 260 L860 350 L860 420 L180 420 Z" fill="white" opacity="0.2"/>
  <path d="M180 350 L240 270 L380 230 L640 220 L780 260 L860 350" fill="none" stroke="white" stroke-width="10" stroke-linecap="round" stroke-linejoin="round" opacity="0.8"/>
  <rect x="180" y="350" width="680" height="70" rx="8" fill="none" stroke="white" stroke-width="10" opacity="0.8"/>
  <!-- Wheels -->
  <circle cx="310" cy="430" r="55" fill="none" stroke="white" stroke-width="10" opacity="0.8"/>
  <circle cx="310" cy="430" r="28" fill="white" opacity="0.4"/>
  <circle cx="720" cy="430" r="55" fill="none" stroke="white" stroke-width="10" opacity="0.8"/>
  <circle cx="720" cy="430" r="28" fill="white" opacity="0.4"/>
  <!-- Windows -->
  <path d="M260 280 L320 240 L460 235 L460 295 L260 295 Z" fill="white" opacity="0.5"/>
  <path d="M470 233 L640 225 L700 275 L470 295 Z" fill="white" opacity="0.5"/>
  <!-- Wrench -->
  <g transform="rotate(30 950 280)">
    <rect x="900" y="160" width="36" height="180" rx="12" fill="white" opacity="0.9"/>
    <rect x="878" y="155" width="80" height="38" rx="16" fill="white" opacity="0.9"/>
    <rect x="878" y="155" width="30" height="38" rx="8" fill="#b45309" opacity="0.5"/>
    <rect x="928" y="155" width="30" height="38" rx="8" fill="#b45309" opacity="0.5"/>
    <rect x="878" y="328" width="80" height="38" rx="16" fill="white" opacity="0.9"/>
    <rect x="878" y="328" width="30" height="38" rx="8" fill="#b45309" opacity="0.5"/>
    <rect x="928" y="328" width="30" height="38" rx="8" fill="#b45309" opacity="0.5"/>
  </g>
  <text x="100" y="576" font-family="system-ui,sans-serif" font-size="22" font-weight="700" fill="white" opacity="0.35" letter-spacing="6">MIAUSEO · WARSZTAT SAMOCHODOWY · GOOGLE</text>
</svg>
