<svg xmlns="http://www.w3.org/2000/svg" width="1200" height="630" viewBox="0 0 1200 630">
  <defs>
    <linearGradient id="bg" x1="0%" y1="0%" x2="100%" y2="100%">
      <stop offset="0%" stop-color="#0d9488"/><stop offset="100%" stop-color="#064e43"/>
    </linearGradient>
  </defs>
  <rect width="1200" height="630" fill="url(#bg)"/>
  <!-- Map grid -->
  <g stroke="white" stroke-width="2" opacity="0.12">
    <line x1="0" y1="160" x2="1200" y2="160"/><line x1="0" y1="320" x2="1200" y2="320"/><line x1="0" y1="480" x2="1200" y2="480"/>
    <line x1="240" y1="0" x2="240" y2="630"/><line x1="480" y1="0" x2="480" y2="630"/><line x1="720" y1="0" x2="720" y2="630"/><line x1="960" y1="0" x2="960" y2="630"/>
  </g>
  <!-- roads -->
  <g stroke="white" stroke-width="14" opacity="0.18" fill="none" stroke-linecap="round">
    <path d="M120 540 L120 240 L520 240 L520 120"/>
    <path d="M120 380 L900 380 L900 540"/>
  </g>
  <!-- Map pins (local pack) -->
  <g transform="translate(420 150)">
    <path d="M70 0 C31 0 0 31 0 70 C0 122 70 200 70 200 C70 200 140 122 140 70 C140 31 109 0 70 0 Z" fill="white" opacity="0.95"/>
    <circle cx="70" cy="70" r="30" fill="#0d9488"/>
    <text x="70" y="84" font-family="system-ui,sans-serif" font-size="42" font-weight="800" fill="white" text-anchor="middle">1</text>
  </g>
  <g transform="translate(680 250) scale(0.8)" opacity="0.8">
    <path d="M70 0 C31 0 0 31 0 70 C0 122 70 200 70 200 C70 200 140 122 140 70 C140 31 109 0 70 0 Z" fill="white"/>
    <circle cx="70" cy="70" r="30" fill="#0d9488"/>
    <text x="70" y="84" font-family="system-ui,sans-serif" font-size="42" font-weight="800" fill="white" text-anchor="middle">2</text>
  </g>
  <g transform="translate(250 330) scale(0.7)" opacity="0.7">
    <path d="M70 0 C31 0 0 31 0 70 C0 122 70 200 70 200 C70 200 140 122 140 70 C140 31 109 0 70 0 Z" fill="white"/>
    <circle cx="70" cy="70" r="30" fill="#0d9488"/>
    <text x="70" y="84" font-family="system-ui,sans-serif" font-size="42" font-weight="800" fill="white" text-anchor="middle">3</text>
  </g>
  <!-- Magnifier -->
  <g transform="translate(820 360)">
    <circle cx="80" cy="80" r="78" fill="none" stroke="white" stroke-width="14" opacity="0.9"/>
    <line x1="138" y1="138" x2="200" y2="200" stroke="white" stroke-width="20" stroke-linecap="round" opacity="0.9"/>
  </g>
  <text x="100" y="592" font-family="system-ui,sans-serif" font-size="22" font-weight="700" fill="white" opacity="0.4" letter-spacing="6">MIAUSEO · SEO LOKALNE DLA FIRM</text>
</svg>
