<svg xmlns="http://www.w3.org/2000/svg" width="1200" height="630" viewBox="0 0 1200 630">
  <defs>
    <linearGradient id="bg" x1="0%" y1="0%" x2="100%" y2="100%">
      <stop offset="0%" stop-color="#FF7A1A"/>
      <stop offset="100%" stop-color="#9A2F00"/>
    </linearGradient>
    <linearGradient id="pin" x1="0%" y1="0%" x2="0%" y2="100%">
      <stop offset="0%" stop-color="#ffffff" stop-opacity="0.95"/>
      <stop offset="100%" stop-color="#ffffff" stop-opacity="0.75"/>
    </linearGradient>
  </defs>

  <!-- Background -->
  <rect width="1200" height="630" fill="url(#bg)"/>

  <!-- Subtle grid -->
  <g opacity="0.06" stroke="white" stroke-width="1">
    <line x1="0" y1="105" x2="1200" y2="105"/>
    <line x1="0" y1="210" x2="1200" y2="210"/>
    <line x1="0" y1="315" x2="1200" y2="315"/>
    <line x1="0" y1="420" x2="1200" y2="420"/>
    <line x1="0" y1="525" x2="1200" y2="525"/>
    <line x1="150" y1="0" x2="150" y2="630"/>
    <line x1="300" y1="0" x2="300" y2="630"/>
    <line x1="450" y1="0" x2="450" y2="630"/>
    <line x1="600" y1="0" x2="600" y2="630"/>
    <line x1="750" y1="0" x2="750" y2="630"/>
    <line x1="900" y1="0" x2="900" y2="630"/>
    <line x1="1050" y1="0" x2="1050" y2="630"/>
  </g>

  <!-- Decorative circles -->
  <circle cx="100" cy="100" r="200" fill="white" opacity="0.03"/>
  <circle cx="1100" cy="550" r="250" fill="white" opacity="0.03"/>

  <!-- Large map pin (left) -->
  <path d="M330 95 C255 95 192 158 192 238 C192 335 330 468 330 468 C330 468 468 335 468 238 C468 158 405 95 330 95 Z" fill="url(#pin)"/>
  <circle cx="330" cy="230" r="68" fill="#E85500"/>
  <text x="330" y="252" text-anchor="middle" font-family="system-ui,sans-serif" font-size="58" font-weight="900" fill="white">1</text>
  <ellipse cx="330" cy="481" rx="40" ry="13" fill="white" opacity="0.18"/>

  <!-- "LOCAL PACK · TOP 3" label above cards -->
  <text x="558" y="98" font-family="system-ui,sans-serif" font-size="13" font-weight="700" fill="white" opacity="0.5" letter-spacing="6">LOCAL PACK · TOP 3</text>

  <!-- Card 1 – highlighted -->
  <rect x="555" y="116" width="572" height="88" rx="14" fill="white" opacity="0.92"/>
  <circle cx="586" cy="160" r="16" fill="#FF6A00"/>
  <text x="586" y="166" text-anchor="middle" font-family="system-ui,sans-serif" font-size="14" font-weight="900" fill="white">1</text>
  <rect x="615" y="133" width="220" height="13" rx="6" fill="#333" opacity="0.65"/>
  <text x="615" y="167" font-family="system-ui,sans-serif" font-size="19" fill="#FF6A00">★★★★★</text>
  <rect x="615" y="178" width="155" height="9" rx="4" fill="#bbb"/>
  <rect x="848" y="136" width="110" height="36" rx="10" fill="#FF6A00"/>
  <rect x="862" y="150" width="82" height="8" rx="4" fill="white" opacity="0.9"/>

  <!-- Card 2 -->
  <rect x="555" y="222" width="572" height="78" rx="14" fill="white" opacity="0.42"/>
  <circle cx="586" cy="261" r="14" fill="white" opacity="0.55"/>
  <text x="586" y="267" text-anchor="middle" font-family="system-ui,sans-serif" font-size="13" font-weight="700" fill="#666">2</text>
  <rect x="615" y="243" width="185" height="11" rx="5" fill="white" opacity="0.68"/>
  <text x="615" y="271" font-family="system-ui,sans-serif" font-size="16" fill="white" opacity="0.55">★★★★☆</text>
  <rect x="615" y="280" width="135" height="8" rx="4" fill="white" opacity="0.32"/>

  <!-- Card 3 -->
  <rect x="555" y="318" width="572" height="78" rx="14" fill="white" opacity="0.2"/>
  <circle cx="586" cy="357" r="14" fill="white" opacity="0.3"/>
  <text x="586" y="363" text-anchor="middle" font-family="system-ui,sans-serif" font-size="13" font-weight="700" fill="white" opacity="0.8">3</text>
  <rect x="615" y="339" width="165" height="10" rx="5" fill="white" opacity="0.38"/>
  <text x="615" y="367" font-family="system-ui,sans-serif" font-size="16" fill="white" opacity="0.32">★★★★☆</text>
  <rect x="615" y="376" width="120" height="8" rx="4" fill="white" opacity="0.18"/>

  <!-- Bottom label -->
  <text x="100" y="576" font-family="system-ui,sans-serif" font-size="22" font-weight="700" fill="white" opacity="0.35" letter-spacing="6">MIAUSEO · POZYCJONOWANIE WIZYTÓWKI GOOGLE · LOCAL SEO</text>
</svg>
