<svg xmlns="http://www.w3.org/2000/svg" width="1200" height="630" viewBox="0 0 1200 630">
  <defs>
    <linearGradient id="bg" x1="0%" y1="0%" x2="100%" y2="100%">
      <stop offset="0%" stop-color="#0284c7"/>
      <stop offset="100%" stop-color="#0c4a6e"/>
    </linearGradient>
  </defs>
  <rect width="1200" height="630" fill="url(#bg)"/>
  <g opacity="0.06" stroke="white" stroke-width="1">
    <line x1="0" y1="105" x2="1200" y2="105"/><line x1="0" y1="210" x2="1200" y2="210"/><line x1="0" y1="315" x2="1200" y2="315"/><line x1="0" y1="420" x2="1200" y2="420"/><line x1="0" y1="525" x2="1200" y2="525"/>
    <line x1="150" y1="0" x2="150" y2="630"/><line x1="300" y1="0" x2="300" y2="630"/><line x1="450" y1="0" x2="450" y2="630"/><line x1="600" y1="0" x2="600" y2="630"/><line x1="750" y1="0" x2="750" y2="630"/><line x1="900" y1="0" x2="900" y2="630"/><line x1="1050" y1="0" x2="1050" y2="630"/>
  </g>
  <circle cx="120" cy="120" r="180" fill="white" opacity="0.04"/>
  <circle cx="1100" cy="520" r="220" fill="white" opacity="0.04"/>
  <!-- Server left (old) -->
  <rect x="200" y="200" width="240" height="55" rx="10" fill="white" opacity="0.2"/>
  <rect x="200" y="270" width="240" height="55" rx="10" fill="white" opacity="0.2"/>
  <rect x="200" y="340" width="240" height="55" rx="10" fill="white" opacity="0.2"/>
  <circle cx="230" cy="227" r="7" fill="#fbbf24" opacity="0.9"/>
  <circle cx="252" cy="227" r="7" fill="#fbbf24" opacity="0.9"/>
  <circle cx="230" cy="297" r="7" fill="#fbbf24" opacity="0.9"/>
  <circle cx="252" cy="297" r="7" fill="#fbbf24" opacity="0.9"/>
  <circle cx="230" cy="367" r="7" fill="#fbbf24" opacity="0.9"/>
  <!-- Arrow right -->
  <line x1="460" y1="310" x2="730" y2="310" stroke="white" stroke-width="8" stroke-linecap="round" opacity="0.8"/>
  <polyline points="700,280 740,310 700,340" fill="none" stroke="white" stroke-width="8" stroke-linecap="round" stroke-linejoin="round" opacity="0.8"/>
  <!-- Server right (new) -->
  <rect x="760" y="200" width="240" height="55" rx="10" fill="white" opacity="0.35"/>
  <rect x="760" y="270" width="240" height="55" rx="10" fill="white" opacity="0.35"/>
  <rect x="760" y="340" width="240" height="55" rx="10" fill="white" opacity="0.35"/>
  <circle cx="790" cy="227" r="7" fill="#22c55e" opacity="0.9"/>
  <circle cx="812" cy="227" r="7" fill="#22c55e" opacity="0.9"/>
  <circle cx="790" cy="297" r="7" fill="#22c55e" opacity="0.9"/>
  <circle cx="812" cy="297" r="7" fill="#22c55e" opacity="0.9"/>
  <circle cx="790" cy="367" r="7" fill="#22c55e" opacity="0.9"/>
  <circle cx="812" cy="367" r="7" fill="#22c55e" opacity="0.9"/>
  <!-- Labels -->
  <text x="320" y="440" font-family="system-ui,sans-serif" font-size="18" fill="white" opacity="0.4" text-anchor="middle">STARY HOSTING</text>
  <text x="880" y="440" font-family="system-ui,sans-serif" font-size="18" fill="white" opacity="0.4" text-anchor="middle">NOWY HOSTING</text>
  <text x="100" y="576" font-family="system-ui,sans-serif" font-size="22" font-weight="700" fill="white" opacity="0.35" letter-spacing="6">MIAUSEO · WORDPRESS · MIGRACJA</text>
</svg>
