<svg xmlns="http://www.w3.org/2000/svg" width="1200" height="630" viewBox="0 0 1200 630">
  <defs>
    <linearGradient id="bg" x1="0%" y1="0%" x2="100%" y2="100%">
      <stop offset="0%" stop-color="#7c3aed"/><stop offset="100%" stop-color="#3b0a6b"/>
    </linearGradient>
  </defs>
  <rect width="1200" height="630" fill="url(#bg)"/>
  <g opacity="0.07" stroke="white" stroke-width="2" fill="none">
    <path d="M0 110 Q300 70 600 110 T1200 110"/><path d="M0 520 Q300 480 600 520 T1200 520"/>
  </g>
  <!-- Megaphone -->
  <g transform="translate(170 220)">
    <path d="M0 60 L0 160 L70 160 L320 250 L320 -30 L70 60 Z" fill="white" opacity="0.9"/>
    <rect x="320" y="-30" width="46" height="280" rx="16" fill="white" opacity="0.7"/>
    <path d="M30 160 L30 230 L86 230 L70 160 Z" fill="white" opacity="0.6"/>
    <!-- sound waves -->
    <g stroke="#fbbf24" stroke-width="12" fill="none" stroke-linecap="round" opacity="0.9">
      <path d="M410 70 Q450 110 410 150"/>
      <path d="M460 40 Q525 110 460 180"/>
      <path d="M510 10 Q600 110 510 210"/>
    </g>
  </g>
  <!-- Tool/service icons floating -->
  <g transform="translate(720 130)" fill="white" opacity="0.85">
    <!-- wrench -->
    <g transform="rotate(40 60 60)">
      <rect x="44" y="0" width="32" height="150" rx="10"/>
      <circle cx="60" cy="14" r="26"/>
      <circle cx="60" cy="14" r="11" fill="#7c3aed"/>
    </g>
  </g>
  <g transform="translate(920 300)" fill="white" opacity="0.85">
    <!-- gear -->
    <path d="M70 10 l14 0 6 26 22 9 24 -14 10 10 -14 24 9 22 26 6 0 14 -26 6 -9 22 14 24 -10 10 -24 -14 -22 9 -6 26 -14 0 -6 -26 -22 -9 -24 14 -10 -10 14 -24 -9 -22 -26 -6 0 -14 26 -6 9 -22 -14 -24 10 -10 24 14 22 -9 z" />
    <circle cx="77" cy="77" r="26" fill="#7c3aed"/>
  </g>
  <!-- Storefront -->
  <g transform="translate(300 430)" fill="white" opacity="0.85">
    <rect x="0" y="40" width="260" height="120" rx="6"/>
    <path d="M-10 40 L20 0 L240 0 L270 40 Z"/>
    <rect x="30" y="80" width="60" height="80" rx="4" fill="#7c3aed"/>
    <rect x="170" y="80" width="60" height="50" rx="4" fill="#7c3aed"/>
  </g>
  <text x="100" y="596" font-family="system-ui,sans-serif" font-size="22" font-weight="700" fill="white" opacity="0.4" letter-spacing="6">MIAUSEO · REKLAMA FIRM USŁUGOWYCH</text>
</svg>
