<svg xmlns="http://www.w3.org/2000/svg" width="1200" height="630" viewBox="0 0 1200 630">
  <defs><linearGradient id="bg" x1="0%" y1="0%" x2="100%" y2="100%"><stop offset="0%" stop-color="#0284c7"/><stop offset="100%" stop-color="#1e3a5f"/></linearGradient></defs>
  <rect width="1200" height="630" fill="url(#bg)"/>
  <g opacity="0.06" stroke="white" stroke-width="1"><line x1="0" y1="105" x2="1200" y2="105"/><line x1="0" y1="210" x2="1200" y2="210"/><line x1="0" y1="315" x2="1200" y2="315"/><line x1="0" y1="420" x2="1200" y2="420"/><line x1="0" y1="525" x2="1200" y2="525"/><line x1="150" y1="0" x2="150" y2="630"/><line x1="300" y1="0" x2="300" y2="630"/><line x1="450" y1="0" x2="450" y2="630"/><line x1="600" y1="0" x2="600" y2="630"/><line x1="750" y1="0" x2="750" y2="630"/><line x1="900" y1="0" x2="900" y2="630"/><line x1="1050" y1="0" x2="1050" y2="630"/></g>
  <circle cx="120" cy="120" r="180" fill="white" opacity="0.04"/><circle cx="1100" cy="520" r="220" fill="white" opacity="0.04"/>
  <!-- Post card -->
  <rect x="320" y="150" width="560" height="320" rx="20" fill="white" opacity="0.15"/>
  <rect x="340" y="170" width="520" height="160" rx="12" fill="white" opacity="0.2"/>
  <!-- Image placeholder in post -->
  <rect x="340" y="170" width="520" height="160" rx="12" fill="white" opacity="0.08"/>
  <polygon points="600,200 640,260 560,260" fill="white" opacity="0.3"/>
  <!-- Post text lines -->
  <rect x="355" y="345" width="320" height="14" rx="7" fill="white" opacity="0.5"/>
  <rect x="355" y="368" width="260" height="12" rx="6" fill="white" opacity="0.35"/>
  <!-- CTA button in post -->
  <rect x="355" y="400" width="140" height="42" rx="10" fill="white" opacity="0.8"/>
  <rect x="370" y="413" width="110" height="14" rx="5" fill="#0284c7"/>
  <!-- Notification dot -->
  <circle cx="830" cy="170" r="20" fill="#ef4444" opacity="0.9"/>
  <text x="830" y="177" font-family="system-ui,sans-serif" font-size="16" font-weight="900" fill="white" text-anchor="middle">1</text>
  <text x="100" y="576" font-family="system-ui,sans-serif" font-size="22" font-weight="700" fill="white" opacity="0.35" letter-spacing="6">MIAUSEO · GOOGLE BUSINESS PROFILE · POSTY</text>
</svg>
