<svg xmlns="http://www.w3.org/2000/svg" width="1200" height="630" viewBox="0 0 1200 630">
  <defs><linearGradient id="bg" x1="0%" y1="0%" x2="100%" y2="100%"><stop offset="0%" stop-color="#0369a1"/><stop offset="100%" stop-color="#0c2340"/></linearGradient></defs>
  <rect width="1200" height="630" fill="url(#bg)"/>
  <g opacity="0.06" stroke="white" stroke-width="1"><line x1="0" y1="105" x2="1200" y2="105"/><line x1="0" y1="210" x2="1200" y2="210"/><line x1="0" y1="315" x2="1200" y2="315"/><line x1="0" y1="420" x2="1200" y2="420"/><line x1="0" y1="525" x2="1200" y2="525"/><line x1="150" y1="0" x2="150" y2="630"/><line x1="300" y1="0" x2="300" y2="630"/><line x1="450" y1="0" x2="450" y2="630"/><line x1="600" y1="0" x2="600" y2="630"/><line x1="750" y1="0" x2="750" y2="630"/><line x1="900" y1="0" x2="900" y2="630"/><line x1="1050" y1="0" x2="1050" y2="630"/></g>
  <circle cx="120" cy="120" r="180" fill="white" opacity="0.04"/><circle cx="1100" cy="520" r="220" fill="white" opacity="0.04"/>
  <!-- Question bubble -->
  <rect x="300" y="160" width="380" height="140" rx="20" fill="white" opacity="0.85"/>
  <polygon points="340,300 380,300 340,340" fill="white" opacity="0.85"/>
  <text x="490" y="248" font-family="system-ui,sans-serif" font-size="80" font-weight="900" fill="#0369a1" text-anchor="middle">?</text>
  <!-- Answer bubble -->
  <rect x="520" y="340" width="380" height="140" rx="20" fill="white" opacity="0.25"/>
  <polygon points="860,340 820,340 860,300" fill="white" opacity="0.25"/>
  <text x="710" y="428" font-family="system-ui,sans-serif" font-size="80" font-weight="900" fill="white" text-anchor="middle" opacity="0.7">!</text>
  <text x="100" y="576" font-family="system-ui,sans-serif" font-size="22" font-weight="700" fill="white" opacity="0.35" letter-spacing="6">MIAUSEO · GOOGLE BUSINESS PROFILE · Q&amp;A</text>
</svg>
